<svg xmlns="http://www.w3.org/2000/svg" width="36" height="36" fill="none" viewBox="0 0 36 36">
    <g clip-path="url(#prefix__clip0)">
        <path fill="#fff" d="M-1032 -112H408V1365H-1032z"/>
        <path fill="#C4C4C4" d="M-1032 -112H408V128H-1032z"/>
        <path stroke="#000" d="M-1026 128L404-110m0 238l-1430-238"/>
        <rect width="328" height="48" x="-8" y="-8" fill="#fff" rx="13"/>
        <path fill="#111" fill-opacity=".69" d="M26.375 14.656c0-6.461-5.257-11.719-11.719-11.719-6.461 0-11.719 5.258-11.719 11.72 0 6.461 5.258 11.718 11.72 11.718 6.461 0 11.718-5.257 11.718-11.719zM14.656 25.437c-5.944 0-10.781-4.836-10.781-10.78 0-5.945 4.837-10.782 10.781-10.782 5.945 0 10.781 4.837 10.781 10.781 0 5.945-4.836 10.781-10.78 10.781z"/>
        <path fill="#111" fill-opacity=".69" d="M30.845 28.856l-6.302-6.302c-.588.734-1.255 1.4-1.989 1.988l6.302 6.302c.183.184.48.184.663 0l1.326-1.325c.183-.183.183-.48 0-.663z"/>
    </g>
    <defs>
        <clipPath id="prefix__clip0">
            <path fill="#fff" d="M-1032 -112H408V1365H-1032z"/>
        </clipPath>
    </defs>
</svg>
